<?xml version="1.0" encoding="utf-8"?>
<!-- Svg Vector Icons : http://www.onlinewebfonts.com/icon -->
<!DOCTYPE svg PUBLIC "-//W3C//DTD SVG 1.1//EN" "http://www.w3.org/Graphics/SVG/1.1/DTD/svg11.dtd">
<svg version="1.1" xmlns="http://www.w3.org/2000/svg" xmlns:xlink="http://www.w3.org/1999/xlink" x="0px" y="0px" viewBox="0 0 1000 1000" enable-background="new 0 0 1000 1000" xml:space="preserve">
<metadata> Svg Vector Icons : http://www.onlinewebfonts.com/icon </metadata>
<g><path d="M180.6,508.8l150-75.7c0,0-120.2-474.9-278.6-417.5C-72.6,60.8,113.1,441.3,180.6,508.8z"/><path d="M188.3,528.9l150.4-76.1c0,0,134.8,160.5,155.7,394.8l-115.2,49.6C379.1,897.2,225.3,720,188.3,528.9z"/><path d="M403.2,911.3l98.3-37.4l-18.7,84.2L403.2,911.3z"/><path d="M870.6,990H152.7c-42.2,0-122.1-25.6-122.1-122.2l0-158.5h35.1v158.5c0,86.2,83.5,87.1,87,87.1h717.8c27.6,0,48.7-7.5,62.9-22.5c22.8-24,21.5-60.5,21.5-60.9l0-750.7c0-72.8-55-75.7-57.4-75.8l-827.7,0V10h828.3c32.2,1.2,91.8,25.9,91.8,110.9v749.7c0.1,1.2,2.4,50.7-31,86C937.9,978.8,908.2,990,870.6,990z"/><path d="M561.5,255.4h286.6v70.2H561.5V255.4z"/><path d="M424,430.8h421.2v67.2H424V430.8L424,430.8z"/><path d="M567.3,638.5h274.9v73.1H567.3V638.5z"/></g>
</svg>